<svg version="1.1" xmlns="http://www.w3.org/2000/svg" viewBox="0 0 800.7196655273438 863" width="800.7196655273438" height="863">
  <!-- svg-source:excalidraw -->
  
  <defs>
    <style class="style-fonts">
      @font-face {
        font-family: "Virgil";
        src: url("https://excalidraw.com/Virgil.woff2");
      }
      @font-face {
        font-family: "Cascadia";
        src: url("https://excalidraw.com/Cascadia.woff2");
      }
      @font-face {
        font-family: "Assistant";
        src: url("https://excalidraw.com/Assistant-Regular.woff2");
      }
    </style>
    
  </defs>
  <rect x="0" y="0" width="800.7196655273438" height="863" fill="#ffffff"></rect><g stroke-linecap="round" transform="translate(126 10) rotate(0 98 419)"><path d="M32 0 C61.66 -1.01, 91.45 2.25, 164 0 M32 0 C61.02 -1.16, 88.9 -0.85, 164 0 M164 0 C183.34 1.06, 196.22 9.15, 196 32 M164 0 C183.57 0.97, 198.13 11.94, 196 32 M196 32 C198.82 254.79, 197.97 477.19, 196 806 M196 32 C195.8 270.25, 196.03 508.54, 196 806 M196 806 C196.4 826.18, 184.76 836.53, 164 838 M196 806 C195.1 827.38, 184.33 836.45, 164 838 M164 838 C133.69 839.67, 103.93 838.78, 32 838 M164 838 C126.56 837.7, 89.02 837.41, 32 838 M32 838 C8.68 838.57, 1.12 829.22, 0 806 M32 838 C10.22 838.23, 2 827.84, 0 806 M0 806 C-1.42 582.62, -1.25 360.61, 0 32 M0 806 C1.02 556.9, 1.04 308.22, 0 32 M0 32 C1.18 11.71, 11.73 1.97, 32 0 M0 32 C2.04 8.87, 9.58 0.51, 32 0" stroke="#1e1e1e" stroke-width="2" fill="none"></path></g><g stroke-linecap="round"><g transform="translate(126 73) rotate(0 96 0)"><path d="M0.06 0.64 C31.88 0.58, 158.82 0.17, 190.82 0.03 M-1.37 -0.06 C30.81 0.05, 160.79 1.4, 192.91 1.59" stroke="#1e1e1e" stroke-width="2" fill="none"></path></g></g><mask></mask><g stroke-linecap="round"><g transform="translate(125 142) rotate(0 96.5 0)"><path d="M-1.05 0.68 C30.94 0.51, 160.41 -0.8, 192.75 -1.08 M0.6 -0.01 C32.34 -0.06, 159.73 -0.07, 191.67 -0.1" stroke="#1e1e1e" stroke-width="2" fill="none"></path></g></g><mask></mask><g stroke-linecap="round"><g transform="translate(125 209) rotate(0 97 0)"><path d="M-1.04 0.65 C31.07 0.44, 160.65 -0.07, 193.19 -0.36 M0.62 -0.06 C33.05 -0.18, 163.32 1.04, 195.47 0.99" stroke="#1e1e1e" stroke-width="2" fill="none"></path></g></g><mask></mask><g stroke-linecap="round"><g transform="translate(126 279) rotate(0 96 -1)"><path d="M0.32 -0.15 C32.2 -0.57, 160.21 -1.42, 192.31 -1.77 M-0.97 -1.27 C30.69 -2.15, 159.26 -3.81, 191.52 -3.78" stroke="#1e1e1e" stroke-width="2" fill="none"></path></g></g><mask></mask><g stroke-linecap="round"><g transform="translate(125 343) rotate(0 97.5 -1)"><path d="M0.55 0.64 C33.08 0.3, 163.57 -1.36, 196.04 -1.89 M-0.62 -0.07 C31.76 -0.2, 163.06 -0.06, 195.63 -0.29" stroke="#1e1e1e" stroke-width="2" fill="none"></path></g></g><mask></mask><g transform="translate(159 30) rotate(0 67.8199234008789 12.5)"><text x="0" y="17.52" font-family="Virgil, Segoe UI Emoji" font-size="20px" fill="#1e1e1e" text-anchor="start" style="white-space: pre;" direction="ltr" dominant-baseline="alphabetic">return pointer</text></g><g transform="translate(187 94) rotate(0 37.59996032714844 12.5)"><text x="0" y="17.52" font-family="Virgil, Segoe UI Emoji" font-size="20px" fill="#1e1e1e" text-anchor="start" style="white-space: pre;" direction="ltr" dominant-baseline="alphabetic">old_ebp</text></g><g stroke-linecap="round"><g transform="translate(123 452) rotate(0 98 1.5)"><path d="M0.61 -1.14 C33.48 -0.5, 164.01 3.42, 196.55 3.98 M-0.52 0.88 C32.28 1.19, 163.3 2, 195.89 2.37" stroke="#1e1e1e" stroke-width="2" fill="none"></path></g></g><mask></mask><g stroke-linecap="round"><g transform="translate(131 628) rotate(0 96.5 2.5)"><path d="M-0.89 -0.74 C31.37 0.14, 160.63 3.51, 192.86 4.4 M0.85 1.49 C32.99 2.59, 160.07 4.92, 191.84 5.62" stroke="#1e1e1e" stroke-width="2" fill="none"></path></g></g><mask></mask><g transform="translate(185 167) rotate(0 35.46996307373047 12.5)"><text x="0" y="17.52" font-family="Virgil, Segoe UI Emoji" font-size="20px" fill="#1e1e1e" text-anchor="start" style="white-space: pre;" direction="ltr" dominant-baseline="alphabetic">old_edi</text></g><g transform="translate(183 295) rotate(0 38.28996276855469 12.5)"><text x="0" y="17.52" font-family="Virgil, Segoe UI Emoji" font-size="20px" fill="#1e1e1e" text-anchor="start" style="white-space: pre;" direction="ltr" dominant-baseline="alphabetic">old_ebx</text></g><g transform="translate(162 716) rotate(0 63.73993682861328 12.5)"><text x="0" y="17.52" font-family="Virgil, Segoe UI Emoji" font-size="20px" fill="#1e1e1e" text-anchor="start" style="white-space: pre;" direction="ltr" dominant-baseline="alphabetic">buffer 100x4</text></g><g transform="translate(351 775) rotate(0 65 12.5)"><text x="0" y="17.52" font-family="Virgil, Segoe UI Emoji" font-size="20px" fill="#1e1e1e" text-anchor="start" style="white-space: pre;" direction="ltr" dominant-baseline="alphabetic">esp+0x24</text></g><g transform="translate(186 230) rotate(0 35.2099609375 12.5)"><text x="0" y="17.52" font-family="Virgil, Segoe UI Emoji" font-size="20px" fill="#1e1e1e" text-anchor="start" style="white-space: pre;" direction="ltr" dominant-baseline="alphabetic">old_esi</text></g><g transform="translate(416 603) rotate(0 157.39987182617188 12.5)"><text x="0" y="17.52" font-family="Virgil, Segoe UI Emoji" font-size="20px" fill="#1e1e1e" text-anchor="start" style="white-space: pre;" direction="ltr" dominant-baseline="alphabetic">0x1d0 – 0x24 = 0x1AC = 428 </text></g><g transform="translate(169 663) rotate(0 56.31993865966797 12.5)"><text x="0" y="17.52" font-family="Virgil, Segoe UI Emoji" font-size="20px" fill="#1e1e1e" text-anchor="start" style="white-space: pre;" direction="ltr" dominant-baseline="alphabetic">unsigned int</text></g><g stroke-linecap="round"><g transform="translate(124 782) rotate(0 97.5 1)"><path d="M-0.57 -0.97 C31.73 -0.54, 161.34 1.73, 193.95 2.03 M1.33 1.14 C33.98 1.82, 163.94 3.52, 196.11 3.58" stroke="#1e1e1e" stroke-width="2" fill="none"></path></g></g><mask></mask><g stroke-linecap="round"><g transform="translate(125 822) rotate(0 -13.5 -183.5)"><path d="M0.61 -0.11 C-3.81 -30.86, -27.46 -122.04, -27.28 -183.32 C-27.1 -244.61, -3.05 -337.29, 1.67 -367.83 M-0.53 -1.22 C-4.98 -31.8, -28.15 -124.13, -27.85 -185.09 C-27.55 -246.04, -3.6 -336.93, 1.26 -366.95" stroke="#1e1e1e" stroke-width="2" fill="none"></path></g><g transform="translate(125 822) rotate(0 -13.5 -183.5)"><path d="M4.93 -342.22 C3.63 -346.9, 4.07 -352.88, 1.26 -366.95 M4.93 -342.22 C3.98 -348.09, 3.12 -353.05, 1.26 -366.95" stroke="#1e1e1e" stroke-width="2" fill="none"></path></g><g transform="translate(125 822) rotate(0 -13.5 -183.5)"><path d="M-11.82 -345.64 C-9.1 -349.59, -4.66 -354.75, 1.26 -366.95 M-11.82 -345.64 C-8.91 -350.78, -5.91 -354.95, 1.26 -366.95" stroke="#1e1e1e" stroke-width="2" fill="none"></path></g></g><mask></mask><g transform="translate(10 619) rotate(0 27.779983520507812 12.5)"><text x="0" y="17.52" font-family="Virgil, Segoe UI Emoji" font-size="20px" fill="#1e1e1e" text-anchor="start" style="white-space: pre;" direction="ltr" dominant-baseline="alphabetic">0x1d0</text></g><g transform="translate(426 327) rotate(0 182.35983276367188 12.5)"><text x="0" y="17.52" font-family="Virgil, Segoe UI Emoji" font-size="20px" fill="#1e1e1e" text-anchor="start" style="white-space: pre;" direction="ltr" dominant-baseline="alphabetic">0x1AC + 0xC +0x10 = 0x1C8 = 456 </text></g><g transform="translate(147 524) rotate(0 74.56990814208984 12.5)"><text x="0" y="17.52" font-family="Virgil, Segoe UI Emoji" font-size="20px" fill="#1e1e1e" text-anchor="start" style="white-space: pre;" direction="ltr" dominant-baseline="alphabetic">other variables</text></g><g transform="translate(158 366) rotate(0 69.58992004394531 12.5)"><text x="0" y="17.52" font-family="Virgil, Segoe UI Emoji" font-size="20px" fill="#1e1e1e" text-anchor="start" style="white-space: pre;" direction="ltr" dominant-baseline="alphabetic">alignement esp</text></g><g transform="translate(54 390) rotate(0 18.939987182617188 12.5)"><text x="0" y="17.52" font-family="Virgil, Segoe UI Emoji" font-size="20px" fill="#1e1e1e" text-anchor="start" style="white-space: pre;" direction="ltr" dominant-baseline="alphabetic">0xC</text></g><g stroke-linecap="round"><g transform="translate(322 784) rotate(0 12 -164)"><path d="M0.33 -0.08 C4.13 -27.45, 22.7 -110.18, 22.83 -164.66 C22.95 -219.13, 4.59 -299.84, 1.09 -326.95 M-0.95 -1.17 C3.2 -28.87, 24.7 -112, 24.92 -166.6 C25.14 -221.19, 4.1 -301.59, 0.37 -328.75" stroke="#1e1e1e" stroke-width="2" fill="none"></path></g><g transform="translate(322 784) rotate(0 12 -164)"><path d="M13.17 -307.27 C9.24 -315.7, 6.08 -320.1, 0.37 -328.75 M13.17 -307.27 C7.25 -315.71, 2.39 -323.09, 0.37 -328.75" stroke="#1e1e1e" stroke-width="2" fill="none"></path></g><g transform="translate(322 784) rotate(0 12 -164)"><path d="M-3.63 -304.07 C-2.46 -313.51, -0.53 -318.88, 0.37 -328.75 M-3.63 -304.07 C-3.07 -313.84, -1.43 -322.46, 0.37 -328.75" stroke="#1e1e1e" stroke-width="2" fill="none"></path></g></g><mask></mask><g stroke-linecap="round"><g transform="translate(124 452) rotate(0 -4.5 -55)"><path d="M0.56 -0.24 C-1.52 -8.54, -13.01 -30.75, -12.51 -48.84 C-12.01 -66.94, 1 -98.64, 3.56 -108.82 M-0.61 -1.42 C-2.8 -9.67, -13.73 -29.56, -13.2 -47.75 C-12.67 -65.94, -0.06 -100.38, 2.56 -110.54" stroke="#1e1e1e" stroke-width="2" fill="none"></path></g><g transform="translate(124 452) rotate(0 -4.5 -55)"><path d="M3.88 -85.57 C2.88 -92.19, 1.49 -101.18, 2.56 -110.54 M3.88 -85.57 C3.21 -95.56, 3.44 -105.98, 2.56 -110.54" stroke="#1e1e1e" stroke-width="2" fill="none"></path></g><g transform="translate(124 452) rotate(0 -4.5 -55)"><path d="M-12.48 -90.56 C-8.56 -95.77, -5.08 -103.28, 2.56 -110.54 M-12.48 -90.56 C-6.67 -98.58, 0.08 -107.01, 2.56 -110.54" stroke="#1e1e1e" stroke-width="2" fill="none"></path></g></g><mask></mask><g stroke-linecap="round"><g transform="translate(127 342) rotate(0 -13 -134.5)"><path d="M-0.66 0.52 C-4.91 -21.18, -25.97 -86.14, -25.85 -131.12 C-25.73 -176.09, -4.06 -246.46, 0.07 -269.33 M1.2 -0.26 C-3.17 -21.68, -26.41 -84.99, -26.72 -129.64 C-27.03 -174.3, -4.89 -244.71, -0.66 -268.18" stroke="#1e1e1e" stroke-width="2" fill="none"></path></g><g transform="translate(127 342) rotate(0 -13 -134.5)"><path d="M2.24 -243.35 C2.5 -249.89, 0.65 -256.81, -0.66 -268.18 M2.24 -243.35 C2.36 -250.86, 1.58 -257.73, -0.66 -268.18" stroke="#1e1e1e" stroke-width="2" fill="none"></path></g><g transform="translate(127 342) rotate(0 -13 -134.5)"><path d="M-14.4 -247.3 C-9.63 -252.67, -6.94 -258.51, -0.66 -268.18 M-14.4 -247.3 C-9.78 -253.83, -6.02 -259.62, -0.66 -268.18" stroke="#1e1e1e" stroke-width="2" fill="none"></path></g></g><mask></mask><g transform="translate(39 203) rotate(0 22.089988708496094 12.5)"><text x="0" y="17.52" font-family="Virgil, Segoe UI Emoji" font-size="20px" fill="#1e1e1e" text-anchor="start" style="white-space: pre;" direction="ltr" dominant-baseline="alphabetic">0x10</text></g><g stroke-linecap="round"><g transform="translate(322 782) rotate(0 36 -352.5)"><path d="M0.85 -0.83 C13.24 -76.92, 74.26 -338.45, 73.96 -455.82 C73.66 -573.19, 11.37 -663.49, -0.95 -705.05 M-0.16 1.35 C12.19 -74.59, 73.77 -336.67, 73.51 -454.18 C73.26 -571.7, 11.03 -662.09, -1.69 -703.77" stroke="#1e1e1e" stroke-width="2" fill="none"></path></g><g transform="translate(322 782) rotate(0 36 -352.5)"><path d="M15.52 -685.64 C9.41 -688.78, 6.48 -695.16, -1.69 -703.77 M15.52 -685.64 C9.31 -691.4, 4.77 -696.7, -1.69 -703.77" stroke="#1e1e1e" stroke-width="2" fill="none"></path></g><g transform="translate(322 782) rotate(0 36 -352.5)"><path d="M-0.15 -678.81 C-2.11 -683.89, -0.83 -692.1, -1.69 -703.77 M-0.15 -678.81 C-1.79 -686.56, -1.71 -693.87, -1.69 -703.77" stroke="#1e1e1e" stroke-width="2" fill="none"></path></g></g><mask></mask><g transform="translate(353 828) rotate(0 15.829978942871094 12.5)"><text x="0" y="17.52" font-family="Virgil, Segoe UI Emoji" font-size="20px" fill="#1e1e1e" text-anchor="start" style="white-space: pre;" direction="ltr" dominant-baseline="alphabetic">esp</text></g></svg>