<svg version="1.1" xmlns="http://www.w3.org/2000/svg" viewBox="0 0 572.6399459838867 701" width="572.6399459838867" height="701">
  <!-- svg-source:excalidraw -->
  
  <defs>
    <style class="style-fonts">
      @font-face {
        font-family: "Virgil";
        src: url("https://excalidraw.com/Virgil.woff2");
      }
      @font-face {
        font-family: "Cascadia";
        src: url("https://excalidraw.com/Cascadia.woff2");
      }
      @font-face {
        font-family: "Assistant";
        src: url("https://excalidraw.com/Assistant-Regular.woff2");
      }
    </style>
    
  </defs>
  <rect x="0" y="0" width="572.6399459838867" height="701" fill="#ffffff"></rect><g stroke-linecap="round" transform="translate(155 10) rotate(0 98 340.5)"><path d="M32 0 C61.66 -1.01, 91.45 2.25, 164 0 M32 0 C61.02 -1.16, 88.9 -0.85, 164 0 M164 0 C183.34 1.06, 196.22 9.15, 196 32 M164 0 C183.57 0.97, 198.13 11.94, 196 32 M196 32 C198.31 209.57, 197.45 386.75, 196 649 M196 32 C195.76 221.9, 196 411.83, 196 649 M196 649 C196.4 669.18, 184.76 679.53, 164 681 M196 649 C195.1 670.38, 184.33 679.45, 164 681 M164 681 C133.69 682.67, 103.93 681.78, 32 681 M164 681 C126.56 680.7, 89.02 680.41, 32 681 M32 681 C8.68 681.57, 1.12 672.22, 0 649 M32 681 C10.22 681.23, 2 670.84, 0 649 M0 649 C-1.02 470.79, -0.85 293.95, 0 32 M0 649 C0.76 450.37, 0.77 252.16, 0 32 M0 32 C1.18 11.71, 11.73 1.97, 32 0 M0 32 C2.04 8.87, 9.58 0.51, 32 0" stroke="#1e1e1e" stroke-width="2" fill="none"></path></g><g stroke-linecap="round"><g transform="translate(155 73) rotate(0 96 0)"><path d="M0.06 0.64 C31.88 0.58, 158.82 0.17, 190.82 0.03 M-1.37 -0.06 C30.81 0.05, 160.79 1.4, 192.91 1.59" stroke="#1e1e1e" stroke-width="2" fill="none"></path></g></g><mask></mask><g stroke-linecap="round"><g transform="translate(154 142) rotate(0 96.5 0)"><path d="M-1.05 0.68 C30.94 0.51, 160.41 -0.8, 192.75 -1.08 M0.6 -0.01 C32.34 -0.06, 159.73 -0.07, 191.67 -0.1" stroke="#1e1e1e" stroke-width="2" fill="none"></path></g></g><mask></mask><g stroke-linecap="round"><g transform="translate(154 273) rotate(0 96 -1)"><path d="M0.32 -0.15 C32.2 -0.57, 160.21 -1.42, 192.31 -1.77 M-0.97 -1.27 C30.69 -2.15, 159.26 -3.81, 191.52 -3.78" stroke="#1e1e1e" stroke-width="2" fill="none"></path></g></g><mask></mask><g stroke-linecap="round"><g transform="translate(154 343) rotate(0 97.5 -1)"><path d="M0.55 0.64 C33.08 0.3, 163.57 -1.36, 196.04 -1.89 M-0.62 -0.07 C31.76 -0.2, 163.06 -0.06, 195.63 -0.29" stroke="#1e1e1e" stroke-width="2" fill="none"></path></g></g><mask></mask><g transform="translate(188 30) rotate(0 67.8199234008789 12.5)"><text x="0" y="17.52" font-family="Virgil, Segoe UI Emoji" font-size="20px" fill="#1e1e1e" text-anchor="start" style="white-space: pre;" direction="ltr" dominant-baseline="alphabetic">return pointer</text></g><g transform="translate(209 83) rotate(0 46.49994659423828 25)"><text x="46.49994659423828" y="17.52" font-family="Virgil, Segoe UI Emoji" font-size="20px" fill="#1e1e1e" text-anchor="middle" style="white-space: pre;" direction="ltr" dominant-baseline="alphabetic">old_rbp</text><text x="46.49994659423828" y="42.519999999999996" font-family="Virgil, Segoe UI Emoji" font-size="20px" fill="#1e1e1e" text-anchor="middle" style="white-space: pre;" direction="ltr" dominant-baseline="alphabetic">(8 bytes)</text></g><g stroke-linecap="round"><g transform="translate(152 452) rotate(0 98 1.5)"><path d="M0.61 -1.14 C33.48 -0.5, 164.01 3.42, 196.55 3.98 M-0.52 0.88 C32.28 1.19, 163.3 2, 195.89 2.37" stroke="#1e1e1e" stroke-width="2" fill="none"></path></g></g><mask></mask><g transform="translate(197 547) rotate(0 54.839942932128906 25)"><text x="54.839942932128906" y="17.52" font-family="Virgil, Segoe UI Emoji" font-size="20px" fill="#1e1e1e" text-anchor="middle" style="white-space: pre;" direction="ltr" dominant-baseline="alphabetic">buffer</text><text x="54.839942932128906" y="42.519999999999996" font-family="Virgil, Segoe UI Emoji" font-size="20px" fill="#1e1e1e" text-anchor="middle" style="white-space: pre;" direction="ltr" dominant-baseline="alphabetic">(140 bytes)</text></g><g stroke-linecap="round"><g transform="translate(162 683) rotate(0 -30.5 -270.5)"><path d="M0.74 -0.66 C-9.6 -46.98, -59.73 -187.49, -61.13 -277.68 C-62.53 -367.87, -16.74 -497.73, -7.64 -541.8 M-0.34 1.6 C-10.92 -45.11, -60.75 -189.21, -62.15 -279.63 C-63.55 -370.05, -18.09 -497.25, -8.74 -540.91" stroke="#1e1e1e" stroke-width="2" fill="none"></path></g><g transform="translate(162 683) rotate(0 -30.5 -270.5)"><path d="M-6.65 -516 C-8.59 -525.52, -7.72 -535.69, -8.74 -540.91 M-6.65 -516 C-6.26 -521.18, -7.76 -526.96, -8.74 -540.91" stroke="#1e1e1e" stroke-width="2" fill="none"></path></g><g transform="translate(162 683) rotate(0 -30.5 -270.5)"><path d="M-23.15 -520.48 C-18.91 -528.43, -11.87 -536.92, -8.74 -540.91 M-23.15 -520.48 C-18.9 -524.46, -16.55 -529.2, -8.74 -540.91" stroke="#1e1e1e" stroke-width="2" fill="none"></path></g></g><mask></mask><g transform="translate(10 391) rotate(0 25.819984436035156 12.5)"><text x="0" y="17.52" font-family="Virgil, Segoe UI Emoji" font-size="20px" fill="#1e1e1e" text-anchor="start" style="white-space: pre;" direction="ltr" dominant-baseline="alphabetic">0xC0</text></g><g transform="translate(202 375) rotate(0 52.12994384765625 25)"><text x="52.12994384765625" y="17.52" font-family="Virgil, Segoe UI Emoji" font-size="20px" fill="#1e1e1e" text-anchor="middle" style="white-space: pre;" direction="ltr" dominant-baseline="alphabetic">username</text><text x="52.12994384765625" y="42.519999999999996" font-family="Virgil, Segoe UI Emoji" font-size="20px" fill="#1e1e1e" text-anchor="middle" style="white-space: pre;" direction="ltr" dominant-baseline="alphabetic">(40 bytes)</text></g><g transform="translate(204 283) rotate(0 45.24994659423828 25)"><text x="45.24994659423828" y="17.52" font-family="Virgil, Segoe UI Emoji" font-size="20px" fill="#1e1e1e" text-anchor="middle" style="white-space: pre;" direction="ltr" dominant-baseline="alphabetic">int size</text><text x="45.24994659423828" y="42.519999999999996" font-family="Virgil, Segoe UI Emoji" font-size="20px" fill="#1e1e1e" text-anchor="middle" style="white-space: pre;" direction="ltr" dominant-baseline="alphabetic">(4 bytes)</text></g><g transform="translate(210.50005340576172 180) rotate(0 46.49994659423828 25)"><text x="46.49994659423828" y="17.52" font-family="Virgil, Segoe UI Emoji" font-size="20px" fill="#1e1e1e" text-anchor="middle" style="white-space: pre;" direction="ltr" dominant-baseline="alphabetic">non used</text><text x="46.49994659423828" y="42.519999999999996" font-family="Virgil, Segoe UI Emoji" font-size="20px" fill="#1e1e1e" text-anchor="middle" style="white-space: pre;" direction="ltr" dominant-baseline="alphabetic">(8 bytes)</text></g><g stroke-linecap="round"><g transform="translate(341 683) rotate(0 37 -304)"><path d="M0.02 -0.25 C12.24 -56.54, 71.65 -237.14, 73.04 -338.45 C74.42 -439.75, 18.85 -563.33, 8.35 -608.1 M-1.42 -1.43 C11.19 -57.49, 73.8 -236.24, 75.24 -337.14 C76.69 -438.04, 18.58 -561.51, 7.24 -606.83" stroke="#1e1e1e" stroke-width="2" fill="none"></path></g><g transform="translate(341 683) rotate(0 37 -304)"><path d="M22.86 -587.31 C18.24 -594.3, 13.61 -599.16, 7.24 -606.83 M22.86 -587.31 C18.46 -592.19, 13.89 -599.17, 7.24 -606.83" stroke="#1e1e1e" stroke-width="2" fill="none"></path></g><g transform="translate(341 683) rotate(0 37 -304)"><path d="M6.65 -581.84 C6.54 -590.34, 6.38 -596.71, 7.24 -606.83 M6.65 -581.84 C6.93 -588.45, 7.1 -597.02, 7.24 -606.83" stroke="#1e1e1e" stroke-width="2" fill="none"></path></g></g><mask></mask><g transform="translate(435.3600540161133 352) rotate(0 63.63994598388672 12.5)"><text x="63.63994598388672" y="17.52" font-family="Virgil, Segoe UI Emoji" font-size="20px" fill="#1e1e1e" text-anchor="middle" style="white-space: pre;" direction="ltr" dominant-baseline="alphabetic">0xC8 = 200</text></g></svg>