<svg version="1.1" xmlns="http://www.w3.org/2000/svg" viewBox="0 0 603.8066562600434 736" width="603.8066562600434" height="736">
  <!-- svg-source:excalidraw -->
  
  <defs>
    <style class="style-fonts">
      @font-face {
        font-family: "Virgil";
        src: url("https://excalidraw.com/Virgil.woff2");
      }
      @font-face {
        font-family: "Cascadia";
        src: url("https://excalidraw.com/Cascadia.woff2");
      }
      @font-face {
        font-family: "Assistant";
        src: url("https://excalidraw.com/Assistant-Regular.woff2");
      }
    </style>
    
  </defs>
  <rect x="0" y="0" width="603.8066562600434" height="736" fill="#ffffff"></rect><g stroke-linecap="round" transform="translate(12.04687537625432 10) rotate(0 97 356)"><path d="M32 0 C61.2 -1.02, 90.53 2.24, 162 0 M32 0 C60.58 -1.15, 88.03 -0.85, 162 0 M162 0 C181.34 1.06, 194.22 9.15, 194 32 M162 0 C181.57 0.97, 196.13 11.94, 194 32 M194 32 C196.41 218.5, 195.55 404.61, 194 680 M194 32 C193.77 231.44, 194.01 430.92, 194 680 M194 680 C194.4 700.18, 182.76 710.53, 162 712 M194 680 C193.1 701.38, 182.33 710.45, 162 712 M162 712 C132.16 713.66, 102.86 712.77, 32 712 M162 712 C125.12 711.7, 88.14 711.4, 32 712 M32 712 C8.68 712.57, 1.12 703.22, 0 680 M32 712 C10.22 712.23, 2 701.84, 0 680 M0 680 C-1.1 492.87, -0.93 307.12, 0 32 M0 680 C0.81 471.41, 0.82 263.23, 0 32 M0 32 C1.18 11.71, 11.73 1.97, 32 0 M0 32 C2.04 8.87, 9.58 0.51, 32 0" stroke="#1e1e1e" stroke-width="2" fill="none"></path></g><g stroke-linecap="round"><g transform="translate(12.04687537625432 73) rotate(0 95.77080615579149 0.7639462117943907)"><path d="M0.06 0.64 C31.88 0.58, 158.82 0.17, 190.82 0.03 M-1.37 -0.06 C30.81 0.05, 160.79 1.4, 192.91 1.59" stroke="#1e1e1e" stroke-width="2" fill="none"></path></g></g><mask></mask><g stroke-linecap="round"><g transform="translate(11.04687537625432 142) rotate(0 95.85001556202769 -0.1988053612411136)"><path d="M-1.05 0.68 C30.94 0.51, 160.41 -0.8, 192.75 -1.08 M0.6 -0.01 C32.34 -0.06, 159.73 -0.07, 191.67 -0.1" stroke="#1e1e1e" stroke-width="2" fill="none"></path></g></g><mask></mask><g stroke-linecap="round"><g transform="translate(11.04687537625432 209) rotate(0 97.21646305202972 0.3167645316645462)"><path d="M-1.04 0.65 C31.07 0.44, 160.65 -0.07, 193.19 -0.36 M0.62 -0.06 C33.05 -0.18, 163.32 1.04, 195.47 0.99" stroke="#1e1e1e" stroke-width="2" fill="none"></path></g></g><mask></mask><g stroke-linecap="round"><g transform="translate(12.04687537625432 279) rotate(0 95.66729438319334 -1.9631451646553728)"><path d="M0.32 -0.15 C32.2 -0.57, 160.21 -1.42, 192.31 -1.77 M-0.97 -1.27 C30.69 -2.15, 159.26 -3.81, 191.52 -3.78" stroke="#1e1e1e" stroke-width="2" fill="none"></path></g></g><mask></mask><g stroke-linecap="round"><g transform="translate(11.04687537625432 343) rotate(0 97.70615834647322 -0.6249527998268718)"><path d="M0.55 0.64 C33.08 0.3, 163.57 -1.36, 196.04 -1.89 M-0.62 -0.07 C31.76 -0.2, 163.06 -0.06, 195.63 -0.29" stroke="#1e1e1e" stroke-width="2" fill="none"></path></g></g><mask></mask><g transform="translate(45.04687537625432 30) rotate(0 67.8199234008789 12.5)"><text x="0" y="17.52" font-family="Virgil, Segoe UI Emoji" font-size="20px" fill="#1e1e1e" text-anchor="start" style="white-space: pre;" direction="ltr" dominant-baseline="alphabetic">return pointer</text></g><g transform="translate(73.04687537625432 94) rotate(0 37.59996032714844 12.5)"><text x="0" y="17.52" font-family="Virgil, Segoe UI Emoji" font-size="20px" fill="#1e1e1e" text-anchor="start" style="white-space: pre;" direction="ltr" dominant-baseline="alphabetic">old_ebp</text></g><g stroke-linecap="round"><g transform="translate(12.04687537625432 401) rotate(0 96.41055118367075 1.9655957840476503)"><path d="M-1.13 0.6 C31.35 1.15, 161.77 2.4, 193.95 3.03 M0.47 -0.13 C32.97 0.56, 161.2 3.66, 193.51 4.06" stroke="#1e1e1e" stroke-width="2" fill="none"></path></g></g><mask></mask><g stroke-linecap="round"><g transform="translate(12.04687537625432 463) rotate(0 98.01233165019659 1.4220690183341844)"><path d="M0.61 -1.14 C33.48 -0.5, 164.01 3.42, 196.55 3.98 M-0.52 0.88 C32.28 1.19, 163.3 2, 195.89 2.37" stroke="#1e1e1e" stroke-width="2" fill="none"></path></g></g><mask></mask><g stroke-linecap="round"><g transform="translate(14.04687537625432 527) rotate(0 95.98820058777926 2.44184452606828)"><path d="M-0.89 -0.74 C31.37 0.14, 160.63 3.51, 192.86 4.4 M0.85 1.49 C32.99 2.59, 160.07 4.92, 191.84 5.62" stroke="#1e1e1e" stroke-width="2" fill="none"></path></g></g><mask></mask><g transform="translate(71.04687537625432 167) rotate(0 35.46996307373047 12.5)"><text x="0" y="17.52" font-family="Virgil, Segoe UI Emoji" font-size="20px" fill="#1e1e1e" text-anchor="start" style="white-space: pre;" direction="ltr" dominant-baseline="alphabetic">old_edi</text></g><g transform="translate(68.04687537625432 229) rotate(0 38.28996276855469 12.5)"><text x="0" y="17.52" font-family="Virgil, Segoe UI Emoji" font-size="20px" fill="#1e1e1e" text-anchor="start" style="white-space: pre;" direction="ltr" dominant-baseline="alphabetic">old_ebx</text></g><g transform="translate(79.04687537625432 295) rotate(0 30.319961547851562 12.5)"><text x="0" y="17.52" font-family="Virgil, Segoe UI Emoji" font-size="20px" fill="#1e1e1e" text-anchor="start" style="white-space: pre;" direction="ltr" dominant-baseline="alphabetic">int pid</text></g><g transform="translate(62.04687537625432 609) rotate(0 52.729942321777344 12.5)"><text x="0" y="17.52" font-family="Virgil, Segoe UI Emoji" font-size="20px" fill="#1e1e1e" text-anchor="start" style="white-space: pre;" direction="ltr" dominant-baseline="alphabetic">buffer 128</text></g><g transform="translate(72.04687537625432 359) rotate(0 43.99995422363281 12.5)"><text x="0" y="17.52" font-family="Virgil, Segoe UI Emoji" font-size="20px" fill="#1e1e1e" text-anchor="start" style="white-space: pre;" direction="ltr" dominant-baseline="alphabetic">int event</text></g><g transform="translate(80.04687537625432 420) rotate(0 33.119964599609375 12.5)"><text x="0" y="17.52" font-family="Virgil, Segoe UI Emoji" font-size="20px" fill="#1e1e1e" text-anchor="start" style="white-space: pre;" direction="ltr" dominant-baseline="alphabetic">int v7 </text></g><g transform="translate(77.92691077664495 481.5) rotate(0 29.139968872070312 25)"><text x="0" y="17.52" font-family="Virgil, Segoe UI Emoji" font-size="20px" fill="#1e1e1e" text-anchor="start" style="white-space: pre;" direction="ltr" dominant-baseline="alphabetic">int v6</text><text x="0" y="42.519999999999996" font-family="Virgil, Segoe UI Emoji" font-size="20px" fill="#1e1e1e" text-anchor="start" style="white-space: pre;" direction="ltr" dominant-baseline="alphabetic"> </text></g><g transform="translate(226.04687537625432 701) rotate(0 65 12.5)"><text x="0" y="17.52" font-family="Virgil, Segoe UI Emoji" font-size="20px" fill="#1e1e1e" text-anchor="start" style="white-space: pre;" direction="ltr" dominant-baseline="alphabetic">esp+0x20</text></g><g transform="translate(230.04687537625432 261) rotate(0 63.5 12.5)"><text x="0" y="17.52" font-family="Virgil, Segoe UI Emoji" font-size="20px" fill="#1e1e1e" text-anchor="start" style="white-space: pre;" direction="ltr" dominant-baseline="alphabetic">exp+0xb0</text></g><g transform="translate(223.04687537625432 59) rotate(0 56 12.5)"><text x="0" y="17.52" font-family="Virgil, Segoe UI Emoji" font-size="20px" fill="#1e1e1e" text-anchor="start" style="white-space: pre;" direction="ltr" dominant-baseline="alphabetic">esp+0xbc</text></g><g transform="translate(400.0468753762543 330) rotate(0 96.87989044189453 12.5)"><text x="0" y="17.52" font-family="Virgil, Segoe UI Emoji" font-size="20px" fill="#1e1e1e" text-anchor="start" style="white-space: pre;" direction="ltr" dominant-baseline="alphabetic">0x9c = 156 offset </text></g><g stroke-linecap="round"><g transform="translate(277.0468753762543 673) rotate(0 38.86347085306136 -286.3996795523912)"><path d="M1.17 0.86 C14.79 -66.42, 82.5 -307.56, 81.31 -403.31 C80.12 -499.06, 8.54 -545.19, -5.94 -573.66 M0.33 0.26 C14.38 -66.87, 84.3 -306.45, 83.66 -401.94 C83.02 -497.43, 11.35 -544.07, -3.54 -572.68" stroke="#1e1e1e" stroke-width="2" fill="none"></path></g><g transform="translate(277.0468753762543 673) rotate(0 38.86347085306136 -286.3996795523912)"><path d="M17.85 -559.73 C13.53 -564.12, 5.88 -567.99, -3.54 -572.68 M17.85 -559.73 C12.64 -563.15, 6.67 -566.74, -3.54 -572.68" stroke="#1e1e1e" stroke-width="2" fill="none"></path></g><g transform="translate(277.0468753762543 673) rotate(0 38.86347085306136 -286.3996795523912)"><path d="M4.52 -549.01 C3.72 -556.4, -0.37 -563.12, -3.54 -572.68 M4.52 -549.01 C2.63 -554.94, -0.07 -561.16, -3.54 -572.68" stroke="#1e1e1e" stroke-width="2" fill="none"></path></g></g><mask></mask></svg>